<svg xmlns="http://www.w3.org/2000/svg" width="619.605" height="575.767" viewBox="0 0 619.605 575.767">
    <g id="그룹_25" data-name="그룹 25" transform="translate(-40.867 -68.852)">
        <path id="패스_50" data-name="패스 50" d="M871.837,499.854c25.955-19.769,38.352-52.989,30.591-84.679q-.289-1.181-.611-2.357c-5.145-18.811-17.874-36.689-36.427-42.7-15.578-5.047-32.581-1.166-48.832-3.173-31.9-3.94-56.635-29.752-74.038-56.778s-30.777-57.278-53.9-79.6c-38.117-36.8-100.3-44.727-147.555-20.771s-77.363,77.1-76.08,130.073,32.729,103.611,78.4,130.48c16.776,9.87,36.179,16.863,55.489,14.416,16.755-2.123,31.979-11.126,48.655-13.8,26.219-4.2,52.27,7.652,74.948,21.466s44.582,30.188,70.351,36.592C817.845,535.239,848.845,517.366,871.837,499.854Z" transform="translate(-269.764 -127.276)" fill="#f2f2f2"/>
        <path id="패스_51" data-name="패스 51" d="M666.469,263.3H407.9a20.364,20.364,0,0,0-20.34,20.34v128.69a20.364,20.364,0,0,0,20.34,20.34h258.57a20.357,20.357,0,0,0,20.34-20.34V283.639a20.357,20.357,0,0,0-20.34-20.34Z" transform="translate(-269.764 -127.276)" fill="#fff"/>
        <path id="패스_52" data-name="패스 52" d="M666.47,433.672H407.9a21.364,21.364,0,0,1-21.34-21.34V283.637A21.365,21.365,0,0,1,407.9,262.3H666.47a21.364,21.364,0,0,1,21.34,21.34V412.331A21.365,21.365,0,0,1,666.47,433.672ZM407.9,264.3a19.363,19.363,0,0,0-19.34,19.34V412.331a19.363,19.363,0,0,0,19.34,19.34H666.47a19.363,19.363,0,0,0,19.34-19.34V283.637a19.363,19.363,0,0,0-19.34-19.34Z" transform="translate(-269.764 -127.276)" fill="#ccc"/>
        <path id="패스_53" data-name="패스 53" d="M678.364,469.248H430.576a8.076,8.076,0,0,1,0-16.151H678.364a8.076,8.076,0,0,1,0,16.151Z" transform="translate(-269.764 -127.276)" fill="#e6e6e6"/>
        <path id="패스_54" data-name="패스 54" d="M510.012,392.241a8.7,8.7,0,0,1-4.194-1.092,8.581,8.581,0,0,1-4.508-7.62V311.706a8.694,8.694,0,0,1,13.356-7.339L582.8,340.279a8.694,8.694,0,0,1,0,14.677l-68.131,35.911a8.652,8.652,0,0,1-4.654,1.374Z" transform="translate(-269.764 -127.276)" fill="#f2f2f2"/>
        <path id="패스_55" data-name="패스 55" d="M910.116,356.432H802.063a8.51,8.51,0,0,1-8.5-8.5v-53.78a8.51,8.51,0,0,1,8.5-8.5H910.116a8.509,8.509,0,0,1,8.5,8.5v53.78a8.51,8.51,0,0,1-8.5,8.5Z" transform="translate(-269.764 -127.276)" fill="#fff"/>
        <path id="패스_56" data-name="패스 56" d="M910.116,357.432H802.064a9.511,9.511,0,0,1-9.5-9.5v-53.78a9.511,9.511,0,0,1,9.5-9.5H910.116a9.511,9.511,0,0,1,9.5,9.5v53.78A9.511,9.511,0,0,1,910.116,357.432Zm-108.052-70.78a7.508,7.508,0,0,0-7.5,7.5v53.78a7.508,7.508,0,0,0,7.5,7.5H910.116a7.508,7.508,0,0,0,7.5-7.5v-53.78a7.508,7.508,0,0,0-7.5-7.5Z" transform="translate(-269.764 -127.276)" fill="#ccc"/>
        <path id="패스_57" data-name="패스 57" d="M892.364,382.748H819.576a8.076,8.076,0,0,1,0-16.151h72.789a8.076,8.076,0,0,1,0,16.151Z" transform="translate(-269.764 -127.276)" fill="#e6e6e6"/>
        <path id="패스_58" data-name="패스 58" d="M844.471,340.181a3.633,3.633,0,0,1-1.753-.457,3.586,3.586,0,0,1-1.884-3.184V306.527a3.633,3.633,0,0,1,5.581-3.067l28.471,15.007a3.633,3.633,0,0,1,0,6.133l-28.471,15.007A3.616,3.616,0,0,1,844.471,340.181Z" transform="translate(-269.764 -127.276)" fill="#4f7fff"/>
        <path id="패스_59" data-name="패스 59" d="M841.116,587.788H733.063a8.51,8.51,0,0,1-8.5-8.5v-53.78a8.51,8.51,0,0,1,8.5-8.5H841.116a8.51,8.51,0,0,1,8.5,8.5v53.78a8.51,8.51,0,0,1-8.5,8.5Z" transform="translate(-269.764 -127.276)" fill="#fff"/>
        <path id="패스_60" data-name="패스 60" d="M841.116,588.788H733.064a9.511,9.511,0,0,1-9.5-9.5v-53.78a9.511,9.511,0,0,1,9.5-9.5H841.116a9.511,9.511,0,0,1,9.5,9.5v53.78A9.511,9.511,0,0,1,841.116,588.788Zm-108.052-70.78a7.508,7.508,0,0,0-7.5,7.5v53.78a7.508,7.508,0,0,0,7.5,7.5H841.116a7.508,7.508,0,0,0,7.5-7.5v-53.78a7.508,7.508,0,0,0-7.5-7.5Z" transform="translate(-269.764 -127.276)" fill="#ccc"/>
        <path id="패스_61" data-name="패스 61" d="M823.364,614.248H750.576a8.076,8.076,0,0,1,0-16.151h72.789a8.076,8.076,0,0,1,0,16.151Z" transform="translate(-269.764 -127.276)" fill="#e6e6e6"/>
        <path id="패스_62" data-name="패스 62" d="M775.208,573.181a3.633,3.633,0,0,1-1.753-.457,3.586,3.586,0,0,1-1.884-3.184V539.527a3.633,3.633,0,0,1,5.581-3.067l28.471,15.007a3.633,3.633,0,0,1,0,6.133l-28.471,15.007A3.616,3.616,0,0,1,775.208,573.181Z" transform="translate(-269.764 -127.276)" fill="#4f7fff"/>
        <path id="패스_63" data-name="패스 63" d="M474.205,401.724l-55.3.371s-31.5-10.154-45.781-8.032l-5.462,21.455,39.235,13,68.284-9.907a9.774,9.774,0,1,0-.971-16.886Z" transform="translate(-269.764 -127.276)" fill="#a0616a"/>
        <path id="패스_64" data-name="패스 64" d="M406.424,430.595l-65.614-18.871-5.973-22.258a17.974,17.974,0,0,1,1.389-18.921h0c5.6-7.586,9.98-.051,17.929,5.022,13.936.985,48.72,12.887,62.84,26.668l-1.113,8.471Z" transform="translate(-269.764 -127.276)" fill="#3f3d56"/>
        <path id="패스_65" data-name="패스 65" d="M463.512,412.427a8.7,8.7,0,0,1-4.194-1.092,8.581,8.581,0,0,1-4.508-7.62V331.892a8.694,8.694,0,0,1,13.356-7.339L536.3,360.465a8.695,8.695,0,0,1,0,14.677l-68.131,35.911A8.653,8.653,0,0,1,463.512,412.427Z" transform="translate(-269.764 -127.276)" fill="#4f7fff"/>
        <path id="패스_66" data-name="패스 66" d="M147.978,631.089h13.959l6.64-53.84h-20.6Z" fill="#a0616a"/>
        <path id="패스_67" data-name="패스 67" d="M414.181,753.807h3.929l15.339-6.238,8.221,6.237h0a17.519,17.519,0,0,1,17.518,17.517v.57l-45.008,0Z" transform="translate(-269.764 -127.276)" fill="#2f2e41"/>
        <path id="패스_68" data-name="패스 68" d="M48.578,617.948,61.8,622.424l23.558-48.865-19.513-6.607Z" fill="#a0616a"/>
        <path id="패스_69" data-name="패스 69" d="M316.431,739.765l3.721,1.26,16.53-.989,5.786,8.544h0a17.519,17.519,0,0,1,10.974,22.211l-.183.539L310.631,756.9Z" transform="translate(-269.764 -127.276)" fill="#2f2e41"/>
        <path id="패스_70" data-name="패스 70" d="M334.522,526.457s-1.63,19.559,2.445,38.3,12.844,80.964,12.844,80.964c-17.762,29.194-28.056,57.921-30,87l25,2,35.8-84.934,3.627-85.03,26.078,57.862-1.341,4.47a5.036,5.036,0,0,0,2.153,5.717h0s-2.442,15.892-.812,15.892,5.7,2.445,5.7,2.445c-10.16,31.628-11.524,61.917-2.206,90.579l22-1L450.245,616.1l-10.594-67.641-.815-13.039-3.667.151-1.867-5.448-3.43-9.372Z" transform="translate(-269.764 -127.276)" fill="#2f2e41"/>
        <path id="패스_71" data-name="패스 71" d="M333.113,530.565l-.145-.2c-7.757-10.86,3.91-36.957,5.669-40.74l-7.411-2.405-6.481-54.84-4.74-18.945a41.592,41.592,0,0,1,11.805-40.308l10.956-10.33,13.315-19.7h21.471L384.914,357a31.3,31.3,0,0,1,24.214,31.952l-1.669,36.471,6.532,45.41,0,8.218,11.34,18.593,2.47,11.527c1.022,1.349,7.77,10.346,7.77,12.806,0,.369-.273.726-.858,1.122-4.6,3.114-30.015,9.462-41.264,4.961-11.982-4.791-59.614,2.4-60.094,2.47Z" transform="translate(-269.764 -127.276)" fill="#3f3d56"/>
        <circle id="타원_8" data-name="타원 8" cx="28.436" cy="28.436" r="28.436" transform="translate(71.39 152.585)" fill="#a0616a"/>
        <path id="패스_73" data-name="패스 73" d="M475.15,330.128,431.277,363.8s-31.242,10.913-41.352,21.225l8.593,20.4,39.129-13.313,48.467-49.11a9.774,9.774,0,1,0-10.965-12.878Z" transform="translate(-269.764 -127.276)" fill="#a0616a"/>
        <path id="패스_74" data-name="패스 74" d="M438.529,394.055,377.582,411.9l-20.955-7.436a17.974,17.974,0,0,1-10.311-15.925h0c-.112-9.43,7.927-6.064,17.327-6.816,11.706-7.625,46.624-19.127,66.2-16.661l4.225,7.426Z" transform="translate(-269.764 -127.276)" fill="#3f3d56"/>
        <path id="패스_75" data-name="패스 75" d="M389.089,275.465c-2.038-.061-1.338-3.9-2.98-5.128q-.012.056-.025.111a4,4,0,0,1-7.648.326,6.083,6.083,0,0,0-3.862-4.051c-.1,3.561-2.8,6.651-6.009,8.189s-6.877,1.794-10.438,1.846-7.175-.067-10.629.8-6.813,2.921-8.289,6.163-.423,7.706,2.8,9.215c-2.5.013-4.621,2.076-5.485,4.422a17.557,17.557,0,0,0-.542,7.419c.7,9.2,2.415,19.095,9.111,25.436,5.1,4.833,12.407,6.78,19.436,6.752s5.793-.674,12.588-2.468c0,0,6.461-18.522,4.834-20.344s-2.978-4.154-2.684-6.578,2.9-4.6,5.162-3.674c-.38-.972-.667-1.157-.846-1.108a8.6,8.6,0,0,0,.3-.845,9.616,9.616,0,0,1,6.005-6.368,7.457,7.457,0,0,1,8.151,2.467C405.483,291.073,400.866,275.815,389.089,275.465Z" transform="translate(-269.764 -127.276)" fill="#2f2e41"/>
        <path id="패스_80" data-name="패스 80" d="M628.839,263.3v27.16c0,1.35-2.36,2.48-5.54,2.79a.219.219,0,0,0-.08.01c-.53.04-1.09.07-1.66.07a14.57,14.57,0,0,1-5.15-.84c-.15-.06-.3-.13-.45-.19-.14-.08-.29-.15-.43-.23-.79-.47-1.25-1.02-1.25-1.61V263.3Z" transform="translate(-269.764 -127.276)" fill="#ccc"/>
        <circle id="타원_12" data-name="타원 12" cx="12.372" cy="12.372" r="12.372" transform="translate(567.727 445.413)" fill="#3f3d56"/>
        <path id="패스_81" data-name="패스 81" d="M848.937,590.006l-.079,0a1.618,1.618,0,0,1-1.2-.623l-2.068-2.658a1.619,1.619,0,0,1,.284-2.272l.074-.058a1.618,1.618,0,0,1,2.272.284,1.181,1.181,0,0,0,1.788.087l4.2-4.432a1.621,1.621,0,0,1,2.289-.062l.069.066a1.618,1.618,0,0,1,.062,2.289l-6.515,6.877a1.616,1.616,0,0,1-1.175.506Z" transform="translate(-269.764 -127.276)" fill="#fff"/>
        <circle id="타원_13" data-name="타원 13" cx="12.372" cy="12.372" r="12.372" transform="translate(635.727 215.413)" fill="#3f3d56"/>
        <path id="패스_82" data-name="패스 82" d="M916.937,360.006l-.079,0a1.618,1.618,0,0,1-1.2-.623l-2.068-2.658a1.619,1.619,0,0,1,.284-2.272l.074-.058a1.618,1.618,0,0,1,2.272.284,1.181,1.181,0,0,0,1.788.087l4.2-4.432a1.621,1.621,0,0,1,2.289-.062l.069.066a1.618,1.618,0,0,1,.062,2.289l-6.515,6.877A1.617,1.617,0,0,1,916.937,360.006Z" transform="translate(-269.764 -127.276)" fill="#fff"/>
    </g>
</svg>