<?xml version="1.0" encoding="UTF-8"?><svg id="Layer_1" xmlns="http://www.w3.org/2000/svg" viewBox="0 0 263 53.45"><defs><style>.cls-1{fill:#707070;}.cls-2{fill:#4f7fff;}.cls-3{isolation:isolate;}</style></defs><g><path class="cls-1" d="M9.5,51.11c-2.98-1.54-5.29-3.72-6.98-6.49-1.69-2.79-2.52-5.94-2.52-9.47s.83-6.68,2.52-9.47c1.69-2.77,4-4.95,6.98-6.49,2.96-1.54,6.3-2.33,9.99-2.33,3.4,0,6.43,.6,9.09,1.8,2.66,1.2,4.87,2.93,6.6,5.2l-7.45,6.65c-2.17-2.73-4.71-4.1-7.64-4.1-2.47,0-4.44,.79-5.94,2.38s-2.25,3.7-2.25,6.36,.76,4.79,2.25,6.36,3.48,2.38,5.94,2.38c2.93,0,5.48-1.37,7.64-4.1l7.45,6.65c-1.73,2.27-3.92,4-6.6,5.2-2.66,1.2-5.7,1.8-9.09,1.8-3.7-.02-7.03-.79-9.99-2.33h0Z"/><path class="cls-1" d="M46.02,51.08c-2.99-1.56-5.34-3.73-7.04-6.52-1.7-2.77-2.55-5.92-2.55-9.42s.85-6.63,2.55-9.42c1.7-2.77,4.05-4.95,7.04-6.52s6.38-2.35,10.15-2.35,7.15,.79,10.15,2.35,5.34,3.73,7.04,6.52c1.7,2.79,2.55,5.92,2.55,9.42s-.85,6.63-2.55,9.42c-1.7,2.79-4.05,4.96-7.04,6.52s-6.38,2.35-10.15,2.35-7.14-.77-10.15-2.35Zm14.11-8.27c1.18-.71,2.13-1.73,2.82-3.06s1.06-2.85,1.06-4.62-.35-3.31-1.06-4.62c-.69-1.32-1.64-2.33-2.82-3.06-1.18-.71-2.5-1.07-3.97-1.07s-2.79,.36-3.97,1.07c-1.18,.72-2.13,1.73-2.82,3.06s-1.06,2.85-1.06,4.62,.35,3.31,1.06,4.62c.69,1.32,1.64,2.33,2.82,3.06,1.18,.71,2.5,1.07,3.97,1.07s2.79-.35,3.97-1.07Z"/><path class="cls-1" d="M114.67,17.65V52.63h-9.69l-13.3-15.88v15.89h-11.5V17.67h9.69l13.31,15.88v-15.89h11.48Z"/><path class="cls-1" d="M124.94,52.45c-2.74-.65-5.01-1.53-6.77-2.62l3.8-8.59c1.67,.96,3.53,1.73,5.59,2.33,2.06,.58,4.05,.87,5.94,.87,1.64,0,2.8-.16,3.5-.47s1.06-.79,1.06-1.42c0-.72-.46-1.28-1.37-1.65-.91-.36-2.43-.77-4.52-1.2-2.69-.57-4.95-1.18-6.74-1.83-1.8-.65-3.37-1.72-4.69-3.2-1.34-1.48-2-3.48-2-6.02,0-2.21,.61-4.19,1.84-6,1.23-1.8,3.07-3.21,5.51-4.25,2.44-1.04,5.42-1.54,8.92-1.54,2.39,0,4.76,.25,7.07,.77,2.32,.52,4.35,1.28,6.13,2.27l-3.54,8.54c-3.43-1.73-6.68-2.6-9.74-2.6s-4.55,.72-4.55,2.21c0,.69,.44,1.23,1.35,1.58s2.38,.72,4.44,1.12c2.66,.5,4.92,1.07,6.74,1.72s3.42,1.7,4.77,3.17,2.02,3.47,2.02,6c0,2.21-.61,4.19-1.84,5.97s-3.07,3.2-5.51,4.25-5.42,1.58-8.92,1.58c-2.9,0-5.73-.32-8.48-.98h0Z"/><path class="cls-1" d="M161.39,51.08c-2.99-1.56-5.34-3.73-7.04-6.52-1.7-2.77-2.55-5.92-2.55-9.42s.85-6.63,2.55-9.42c1.7-2.77,4.05-4.95,7.04-6.52,2.99-1.56,6.38-2.35,10.15-2.35s7.15,.79,10.15,2.35,5.34,3.73,7.04,6.52c1.7,2.79,2.55,5.92,2.55,9.42s-.85,6.63-2.55,9.42c-1.7,2.79-4.05,4.96-7.04,6.52s-6.38,2.35-10.15,2.35-7.15-.77-10.15-2.35Zm14.11-8.27c1.18-.71,2.13-1.73,2.82-3.06s1.06-2.85,1.06-4.62-.35-3.31-1.06-4.62c-.69-1.32-1.64-2.33-2.82-3.06-1.18-.71-2.5-1.07-3.97-1.07s-2.79,.36-3.97,1.07c-1.18,.72-2.13,1.73-2.82,3.06s-1.06,2.85-1.06,4.62,.35,3.31,1.06,4.62c.69,1.32,1.64,2.33,2.82,3.06,1.18,.71,2.5,1.07,3.97,1.07s2.79-.35,3.97-1.07Z"/><path class="cls-1" d="M195.56,17.65h11.8v25.84h15.78v9.14h-27.58V17.65h0Z"/><path class="cls-1" d="M261.52,17.65l-14.79,34.97h-11.59l-14.79-34.97h12.7l8.35,20.43,8.54-20.43h11.59Z"/></g><path class="cls-2" d="M251.67,11.4c-1.24-1.21-1.87-2.77-1.87-4.68s.63-3.43,1.87-4.62,2.82-1.78,4.73-1.78,3.47,.6,4.73,1.78c1.24,1.18,1.87,2.73,1.87,4.62s-.63,3.45-1.87,4.68-2.82,1.83-4.73,1.83-3.47-.61-4.73-1.83Z"/><g><g class="cls-3"><path class="cls-1" d="M7.95,11.09c-.78,0-1.49-.13-2.14-.38-.65-.26-1.22-.61-1.7-1.07-.48-.46-.86-1-1.12-1.62-.26-.62-.4-1.3-.4-2.03s.13-1.42,.4-2.03c.26-.62,.64-1.16,1.12-1.62,.48-.46,1.05-.82,1.7-1.07,.65-.26,1.36-.38,2.13-.38s1.49,.13,2.13,.38c.65,.26,1.21,.61,1.69,1.07,.48,.46,.86,1,1.12,1.62,.26,.62,.4,1.3,.4,2.03s-.13,1.42-.4,2.04-.64,1.16-1.12,1.62c-.48,.45-1.05,.81-1.69,1.06-.65,.26-1.35,.38-2.12,.38Zm-.01-1.62c.5,0,.96-.09,1.39-.26,.43-.17,.79-.41,1.11-.73,.31-.32,.56-.69,.73-1.11,.17-.42,.26-.89,.26-1.4s-.09-.98-.26-1.4c-.18-.42-.42-.79-.73-1.11-.31-.32-.68-.56-1.11-.73-.43-.17-.89-.26-1.39-.26s-.96,.09-1.38,.26c-.42,.17-.79,.41-1.11,.73-.32,.32-.56,.69-.74,1.11-.17,.42-.26,.89-.26,1.4s.09,.96,.26,1.39c.17,.43,.42,.8,.73,1.11,.31,.32,.68,.56,1.11,.73,.43,.17,.89,.26,1.39,.26Z"/></g><g class="cls-3"><path class="cls-1" d="M16.06,10.95V3.37h1.69v2.08l-.2-.61c.23-.51,.58-.9,1.07-1.16,.49-.26,1.09-.4,1.82-.4v1.69c-.08-.02-.15-.03-.21-.04-.07,0-.13,0-.2,0-.67,0-1.21,.2-1.6,.59-.4,.39-.6,.98-.6,1.75v3.67h-1.77Z"/></g><g class="cls-3"><path class="cls-1" d="M23.83,2.13c-.33,0-.6-.1-.82-.31-.21-.21-.32-.46-.32-.75s.11-.56,.32-.76c.21-.2,.48-.3,.82-.3s.6,.1,.82,.29c.21,.19,.32,.44,.32,.73,0,.31-.1,.57-.31,.79-.21,.21-.48,.32-.82,.32Zm-.89,8.82V3.37h1.77v7.57h-1.77Z"/><path class="cls-1" d="M31.17,10.61c-.72,0-1.37-.15-1.95-.46-.58-.31-1.04-.73-1.38-1.28-.34-.55-.5-1.19-.5-1.93s.17-1.37,.5-1.91c.34-.55,.79-.97,1.38-1.28,.58-.3,1.23-.45,1.95-.45,.64,0,1.22,.13,1.73,.38,.51,.26,.92,.65,1.23,1.19,.31,.54,.46,1.23,.46,2.07s-.15,1.53-.46,2.08c-.31,.54-.72,.95-1.23,1.21-.51,.26-1.09,.39-1.73,.39Zm.23,3.19c-.7,0-1.38-.09-2.05-.28s-1.21-.45-1.64-.8l.79-1.33c.33,.27,.75,.49,1.25,.66,.51,.17,1.02,.25,1.54,.25,.83,0,1.44-.19,1.83-.57,.39-.38,.58-.96,.58-1.72v-1.35l.14-1.72-.06-1.72v-1.84h1.69v6.42c0,1.37-.35,2.38-1.05,3.03-.7,.65-1.71,.97-3.03,.97Zm.04-4.69c.44,0,.84-.09,1.19-.28,.35-.18,.62-.44,.82-.77,.19-.33,.29-.7,.29-1.13s-.1-.8-.29-1.13c-.19-.33-.47-.58-.82-.75-.35-.17-.75-.26-1.19-.26s-.84,.09-1.2,.26-.63,.43-.82,.75c-.19,.33-.29,.7-.29,1.13s.1,.8,.29,1.13c.19,.33,.47,.58,.82,.77s.75,.28,1.2,.28Z"/><path class="cls-1" d="M39.63,2.13c-.33,0-.6-.1-.82-.31-.21-.21-.32-.46-.32-.75s.11-.56,.32-.76c.21-.2,.48-.3,.82-.3s.6,.1,.82,.29c.21,.19,.32,.44,.32,.73,0,.31-.1,.57-.31,.79-.21,.21-.48,.32-.82,.32Zm-.89,8.82V3.37h1.77v7.57h-1.77Z"/><path class="cls-1" d="M48.07,3.29c.6,0,1.15,.12,1.62,.35,.48,.24,.85,.6,1.13,1.08,.27,.49,.41,1.11,.41,1.88v4.34h-1.77V6.83c0-.67-.16-1.17-.47-1.5-.32-.33-.76-.5-1.33-.5-.42,0-.78,.09-1.11,.26-.32,.17-.57,.42-.74,.76-.17,.34-.26,.76-.26,1.27v3.83h-1.77V3.37h1.69v2.04l-.3-.62c.26-.48,.65-.85,1.16-1.11,.51-.26,1.09-.39,1.75-.39Z"/></g><g class="cls-3"><path class="cls-1" d="M64.32,11.09c-.76,0-1.46-.13-2.11-.38-.65-.25-1.21-.6-1.69-1.06-.48-.46-.85-1-1.11-1.62-.26-.62-.4-1.3-.4-2.04s.13-1.42,.4-2.04c.26-.62,.64-1.16,1.12-1.62s1.04-.81,1.69-1.06c.64-.25,1.35-.38,2.11-.38,.81,0,1.55,.14,2.23,.42,.67,.28,1.24,.69,1.7,1.24l-1.19,1.12c-.36-.39-.76-.68-1.21-.87-.44-.19-.93-.29-1.45-.29s-.99,.09-1.42,.26c-.43,.17-.8,.41-1.12,.72-.32,.31-.56,.68-.74,1.11-.17,.43-.26,.89-.26,1.4s.09,.98,.26,1.4c.17,.43,.42,.79,.74,1.11,.32,.31,.69,.55,1.12,.72,.43,.17,.9,.26,1.42,.26s1-.1,1.45-.29c.44-.19,.85-.49,1.21-.89l1.19,1.13c-.46,.54-1.03,.95-1.7,1.23-.67,.28-1.42,.43-2.24,.43Z"/></g><g class="cls-3"><path class="cls-1" d="M73.97,11.04c-.78,0-1.47-.17-2.07-.5-.6-.34-1.08-.8-1.43-1.38-.35-.59-.52-1.25-.52-2s.17-1.42,.52-2.01c.35-.58,.83-1.04,1.43-1.37,.6-.33,1.29-.5,2.07-.5s1.48,.17,2.09,.5c.61,.33,1.09,.78,1.43,1.36,.34,.58,.52,1.25,.52,2.01s-.17,1.41-.52,2c-.35,.59-.82,1.05-1.43,1.38-.61,.34-1.31,.5-2.09,.5Zm0-1.52c.43,0,.82-.09,1.16-.28,.34-.19,.61-.46,.8-.82,.19-.36,.29-.78,.29-1.26s-.1-.91-.29-1.27c-.19-.35-.46-.63-.8-.82-.34-.19-.72-.28-1.15-.28s-.82,.09-1.16,.28c-.34,.19-.6,.46-.8,.82-.2,.35-.3,.78-.3,1.27s.1,.9,.3,1.26c.2,.36,.47,.63,.8,.82,.34,.19,.72,.28,1.14,.28Z"/><path class="cls-1" d="M84.95,3.29c.6,0,1.15,.12,1.62,.35,.48,.24,.85,.6,1.13,1.08,.27,.49,.41,1.11,.41,1.88v4.34h-1.77V6.83c0-.67-.16-1.17-.47-1.5-.32-.33-.76-.5-1.33-.5-.42,0-.78,.09-1.11,.26-.32,.17-.57,.42-.74,.76-.17,.34-.26,.76-.26,1.27v3.83h-1.77V3.37h1.69v2.04l-.3-.62c.26-.48,.65-.85,1.16-1.11,.51-.26,1.09-.39,1.75-.39Z"/></g><g class="cls-3"><path class="cls-1" d="M90.4,4.85v-1.42h5.05v1.42h-5.05Zm3.86,6.2c-.83,0-1.47-.21-1.93-.65-.45-.43-.68-1.07-.68-1.91V1.7h1.77v6.75c0,.36,.09,.64,.28,.84,.18,.2,.44,.3,.77,.3,.4,0,.73-.1,.99-.31l.5,1.26c-.21,.17-.46,.3-.77,.38-.3,.09-.61,.13-.94,.13Z"/></g><g class="cls-3"><path class="cls-1" d="M101.72,11.04c-.84,0-1.58-.17-2.2-.5-.63-.34-1.12-.8-1.46-1.38-.35-.59-.52-1.25-.52-2s.17-1.42,.5-2.01c.34-.58,.8-1.04,1.39-1.37,.59-.33,1.26-.5,2.02-.5s1.39,.16,1.97,.48c.58,.32,1.03,.78,1.36,1.36,.33,.59,.5,1.28,.5,2.07,0,.08,0,.16,0,.26,0,.09-.01,.18-.02,.27h-6.31v-1.18h5.37l-.69,.37c0-.43-.08-.82-.27-1.15-.19-.33-.45-.59-.77-.78-.33-.19-.7-.28-1.13-.28s-.82,.09-1.14,.28c-.33,.19-.58,.45-.77,.79-.18,.34-.28,.73-.28,1.18v.28c0,.45,.1,.86,.31,1.21,.21,.35,.5,.62,.88,.81,.38,.19,.81,.28,1.3,.28,.43,0,.81-.07,1.15-.2,.34-.13,.64-.34,.91-.62l.95,1.09c-.34,.4-.77,.7-1.28,.91-.52,.21-1.1,.32-1.77,.32Z"/><path class="cls-1" d="M112.21,3.29c.6,0,1.15,.12,1.62,.35,.48,.24,.85,.6,1.13,1.08,.27,.49,.41,1.11,.41,1.88v4.34h-1.77V6.83c0-.67-.16-1.17-.47-1.5-.32-.33-.76-.5-1.33-.5-.42,0-.78,.09-1.11,.26-.32,.17-.57,.42-.74,.76-.17,.34-.26,.76-.26,1.27v3.83h-1.77V3.37h1.69v2.04l-.3-.62c.26-.48,.65-.85,1.16-1.11,.51-.26,1.09-.39,1.75-.39Z"/><path class="cls-1" d="M117.56,4.85v-1.42h5.05v1.42h-5.05Zm3.86,6.2c-.83,0-1.47-.21-1.93-.65-.45-.43-.68-1.07-.68-1.91V1.7h1.77v6.75c0,.36,.09,.64,.28,.84,.18,.2,.44,.3,.77,.3,.4,0,.73-.1,.99-.31l.5,1.26c-.21,.17-.46,.3-.77,.38-.3,.09-.61,.13-.94,.13Z"/><path class="cls-1" d="M127.85,11.04c-.63,0-1.24-.08-1.82-.25-.58-.17-1.04-.37-1.38-.6l.68-1.35c.34,.22,.75,.4,1.22,.54,.47,.14,.95,.21,1.42,.21,.56,0,.96-.08,1.21-.23,.25-.15,.38-.35,.38-.61,0-.21-.08-.37-.26-.47-.17-.11-.39-.19-.67-.25-.27-.06-.58-.11-.91-.16-.34-.05-.67-.11-1.01-.19-.34-.08-.64-.2-.91-.35-.27-.16-.5-.37-.67-.63-.17-.26-.26-.61-.26-1.05,0-.48,.14-.9,.41-1.25,.27-.35,.66-.63,1.16-.82,.5-.19,1.08-.29,1.77-.29,.51,0,1.03,.06,1.55,.17,.52,.11,.95,.27,1.29,.48l-.68,1.35c-.36-.22-.72-.37-1.08-.45-.36-.08-.73-.12-1.08-.12-.54,0-.94,.08-1.2,.24-.26,.16-.39,.36-.39,.61,0,.23,.09,.4,.26,.51,.17,.11,.39,.2,.67,.27,.27,.07,.58,.12,.91,.16,.34,.04,.67,.11,1,.19,.33,.09,.64,.2,.91,.35,.28,.15,.5,.35,.67,.62,.17,.26,.26,.61,.26,1.04,0,.47-.14,.88-.42,1.23-.28,.35-.67,.62-1.18,.82-.51,.19-1.12,.29-1.83,.29Z"/></g><g class="cls-3"><path class="cls-1" d="M139.05,10.95V1.02h4.08c.88,0,1.63,.14,2.26,.43,.63,.28,1.11,.69,1.45,1.22s.51,1.16,.51,1.89-.17,1.36-.51,1.89c-.34,.53-.82,.94-1.45,1.22-.63,.28-1.38,.43-2.26,.43h-3.06l.82-.86v3.73h-1.84Zm1.84-3.53l-.82-.89h2.98c.81,0,1.42-.17,1.84-.52,.41-.34,.62-.83,.62-1.45s-.21-1.12-.62-1.46c-.41-.34-1.02-.51-1.84-.51h-2.98l.82-.91V7.42Z"/></g><g class="cls-3"><path class="cls-1" d="M149.95,10.95V3.37h1.69v2.08l-.2-.61c.23-.51,.58-.9,1.07-1.16,.49-.26,1.09-.4,1.82-.4v1.69c-.08-.02-.15-.03-.21-.04-.07,0-.13,0-.2,0-.67,0-1.21,.2-1.6,.59-.4,.39-.6,.98-.6,1.75v3.67h-1.77Z"/></g><g class="cls-3"><path class="cls-1" d="M160.16,11.04c-.78,0-1.47-.17-2.07-.5-.61-.34-1.08-.8-1.43-1.38-.35-.59-.52-1.25-.52-2s.17-1.42,.52-2.01c.35-.58,.83-1.04,1.43-1.37,.6-.33,1.29-.5,2.07-.5s1.48,.17,2.09,.5c.61,.33,1.09,.78,1.43,1.36,.34,.58,.52,1.25,.52,2.01s-.17,1.41-.52,2c-.35,.59-.82,1.05-1.43,1.38-.61,.34-1.31,.5-2.09,.5Zm0-1.52c.43,0,.82-.09,1.16-.28,.34-.19,.61-.46,.8-.82,.19-.36,.29-.78,.29-1.26s-.1-.91-.29-1.27c-.19-.35-.46-.63-.8-.82-.34-.19-.72-.28-1.15-.28s-.82,.09-1.16,.28c-.34,.19-.6,.46-.8,.82-.2,.35-.3,.78-.3,1.27s.1,.9,.3,1.26c.2,.36,.47,.63,.8,.82,.34,.19,.72,.28,1.14,.28Z"/><path class="cls-1" d="M170.24,11.04c-.78,0-1.47-.17-2.07-.5-.6-.34-1.08-.8-1.43-1.38-.35-.59-.52-1.25-.52-2s.17-1.42,.52-2.01c.35-.58,.83-1.04,1.43-1.37,.6-.33,1.29-.5,2.07-.5s1.48,.17,2.09,.5c.61,.33,1.09,.78,1.43,1.36,.34,.58,.52,1.25,.52,2.01s-.17,1.41-.52,2c-.35,.59-.82,1.05-1.43,1.38-.61,.34-1.31,.5-2.09,.5Zm0-1.52c.43,0,.82-.09,1.16-.28,.34-.19,.61-.46,.8-.82,.19-.36,.29-.78,.29-1.26s-.1-.91-.29-1.27c-.19-.35-.46-.63-.8-.82-.34-.19-.72-.28-1.15-.28s-.82,.09-1.16,.28c-.34,.19-.6,.46-.8,.82s-.3,.78-.3,1.27,.1,.9,.3,1.26,.47,.63,.8,.82c.34,.19,.72,.28,1.14,.28Z"/><path class="cls-1" d="M175.91,4.85v-1.42h5.05v1.42h-5.05Zm1.25,6.1V2.95c0-.79,.23-1.43,.7-1.91,.47-.48,1.14-.72,2.01-.72,.31,0,.61,.03,.89,.1,.28,.07,.51,.17,.7,.31l-.48,1.33c-.13-.1-.28-.18-.45-.23-.17-.05-.35-.08-.52-.08-.37,0-.65,.1-.84,.3-.19,.2-.28,.51-.28,.91v.85l.06,.79v6.32h-1.77Z"/></g><g class="cls-3"><path class="cls-1" d="M191.41,11.09c-.78,0-1.52-.11-2.23-.33s-1.27-.51-1.69-.86l.64-1.43c.4,.31,.89,.57,1.47,.78,.59,.21,1.19,.31,1.8,.31,.52,0,.94-.06,1.26-.17,.32-.11,.56-.27,.71-.46,.15-.19,.23-.41,.23-.66,0-.3-.11-.55-.33-.73-.22-.18-.5-.33-.84-.44-.35-.11-.73-.21-1.15-.3-.42-.09-.84-.21-1.26-.33-.42-.13-.8-.29-1.15-.5-.35-.2-.63-.48-.84-.82-.22-.34-.33-.78-.33-1.3s.14-1.03,.43-1.48c.29-.45,.73-.81,1.32-1.08,.59-.27,1.34-.4,2.25-.4,.6,0,1.19,.08,1.77,.23,.59,.15,1.1,.37,1.53,.65l-.58,1.43c-.44-.26-.9-.46-1.38-.59-.47-.13-.93-.19-1.36-.19-.51,0-.92,.06-1.24,.18-.32,.12-.55,.28-.69,.48-.15,.2-.22,.43-.22,.68,0,.3,.11,.55,.32,.73,.21,.18,.49,.33,.84,.43,.34,.1,.73,.21,1.16,.3,.43,.1,.85,.21,1.27,.33,.42,.12,.8,.28,1.15,.48,.34,.2,.62,.47,.84,.81,.21,.34,.32,.77,.32,1.29s-.14,1.02-.43,1.47c-.29,.45-.73,.81-1.33,1.08-.6,.27-1.35,.4-2.25,.4Z"/></g><g class="cls-3"><path class="cls-1" d="M198.55,13.8c-.37,0-.74-.06-1.11-.18-.37-.12-.68-.29-.92-.51l.71-1.3c.18,.16,.38,.29,.61,.38,.23,.09,.46,.14,.69,.14,.32,0,.58-.08,.78-.24,.2-.16,.38-.43,.55-.81l.44-.99,.14-.21,2.86-6.69h1.7l-3.54,8.18c-.24,.57-.5,1.02-.79,1.35-.29,.33-.61,.56-.96,.69-.35,.13-.74,.2-1.17,.2Zm1.56-2.58l-3.42-7.84h1.84l2.78,6.54-1.21,1.3Z"/></g><g class="cls-3"><path class="cls-1" d="M209.36,11.04c-.63,0-1.24-.08-1.82-.25-.58-.17-1.04-.37-1.38-.6l.68-1.35c.34,.22,.75,.4,1.22,.54,.47,.14,.95,.21,1.42,.21,.56,0,.96-.08,1.21-.23,.25-.15,.38-.35,.38-.61,0-.21-.08-.37-.26-.47-.17-.11-.39-.19-.67-.25-.27-.06-.58-.11-.91-.16-.34-.05-.67-.11-1.01-.19-.34-.08-.64-.2-.91-.35-.27-.16-.5-.37-.67-.63-.17-.26-.26-.61-.26-1.05,0-.48,.14-.9,.41-1.25s.66-.63,1.16-.82c.5-.19,1.08-.29,1.77-.29,.51,0,1.03,.06,1.55,.17,.52,.11,.95,.27,1.29,.48l-.68,1.35c-.36-.22-.72-.37-1.08-.45-.36-.08-.73-.12-1.08-.12-.54,0-.94,.08-1.2,.24-.26,.16-.39,.36-.39,.61,0,.23,.08,.4,.26,.51s.39,.2,.67,.27c.27,.07,.58,.12,.91,.16,.34,.04,.67,.11,1,.19,.33,.09,.64,.2,.91,.35,.28,.15,.5,.35,.67,.62,.17,.26,.26,.61,.26,1.04,0,.47-.14,.88-.42,1.23-.28,.35-.67,.62-1.18,.82-.51,.19-1.12,.29-1.83,.29Z"/></g><g class="cls-3"><path class="cls-1" d="M214.31,4.85v-1.42h5.05v1.42h-5.05Zm3.86,6.2c-.83,0-1.47-.21-1.93-.65-.45-.43-.68-1.07-.68-1.91V1.7h1.77v6.75c0,.36,.09,.64,.28,.84,.18,.2,.44,.3,.77,.3,.4,0,.73-.1,.99-.31l.5,1.26c-.21,.17-.46,.3-.77,.38-.3,.09-.61,.13-.94,.13Z"/></g><g class="cls-3"><path class="cls-1" d="M225.62,11.04c-.84,0-1.58-.17-2.2-.5-.63-.34-1.12-.8-1.46-1.38-.35-.59-.52-1.25-.52-2s.17-1.42,.5-2.01c.34-.58,.8-1.04,1.39-1.37,.59-.33,1.26-.5,2.02-.5s1.39,.16,1.97,.48c.58,.32,1.03,.78,1.36,1.36,.33,.59,.5,1.28,.5,2.07,0,.08,0,.16,0,.26,0,.09-.01,.18-.02,.27h-6.31v-1.18h5.37l-.69,.37c0-.43-.08-.82-.27-1.15-.19-.33-.45-.59-.77-.78-.33-.19-.7-.28-1.13-.28s-.82,.09-1.14,.28c-.33,.19-.58,.45-.77,.79-.18,.34-.28,.73-.28,1.18v.28c0,.45,.1,.86,.31,1.21,.21,.35,.5,.62,.88,.81,.38,.19,.81,.28,1.3,.28,.43,0,.81-.07,1.15-.2,.34-.13,.64-.34,.91-.62l.95,1.09c-.34,.4-.77,.7-1.28,.91-.52,.21-1.1,.32-1.77,.32Z"/><path class="cls-1" d="M241.37,3.29c.6,0,1.14,.12,1.61,.35,.47,.24,.83,.6,1.1,1.08,.26,.49,.4,1.11,.4,1.88v4.34h-1.77V6.83c0-.67-.15-1.17-.44-1.5-.29-.33-.71-.5-1.26-.5-.39,0-.73,.09-1.03,.26-.3,.17-.53,.42-.69,.75-.17,.33-.25,.75-.25,1.26v3.84h-1.77V6.83c0-.67-.15-1.17-.44-1.5-.29-.33-.71-.5-1.26-.5-.39,0-.73,.09-1.03,.26s-.53,.42-.69,.75c-.17,.33-.25,.75-.25,1.26v3.84h-1.77V3.37h1.69v2.01l-.3-.6c.26-.49,.63-.86,1.11-1.12,.49-.26,1.04-.38,1.67-.38,.71,0,1.33,.17,1.85,.52s.87,.88,1.04,1.59l-.69-.24c.25-.57,.65-1.02,1.22-1.36,.57-.34,1.22-.51,1.97-.51Z"/></g></g></svg>