<?xml version="1.0" encoding="UTF-8"?><svg id="Layer_1" xmlns="http://www.w3.org/2000/svg" viewBox="0 0 215.95 43.88"><defs><style>.cls-1{fill:#222;}.cls-2{fill:#4f7fff;}.cls-3{isolation:isolate;}</style></defs><g><path class="cls-1" d="M7.8,41.97c-2.44-1.27-4.35-3.05-5.73-5.33-1.38-2.29-2.07-4.88-2.07-7.77s.69-5.48,2.07-7.77c1.38-2.28,3.29-4.06,5.73-5.33,2.43-1.27,5.17-1.91,8.2-1.91,2.79,0,5.28,.49,7.46,1.47,2.19,.98,4,2.41,5.42,4.27l-6.12,5.46c-1.78-2.24-3.87-3.36-6.27-3.36-2.03,0-3.65,.65-4.88,1.95s-1.85,3.04-1.85,5.23,.62,3.93,1.85,5.23,2.86,1.95,4.88,1.95c2.41,0,4.5-1.13,6.27-3.36l6.12,5.46c-1.42,1.86-3.22,3.29-5.42,4.27-2.19,.98-4.68,1.47-7.46,1.47-3.04-.01-5.77-.65-8.2-1.91h0Z"/><path class="cls-1" d="M37.78,41.94c-2.46-1.28-4.38-3.07-5.78-5.35-1.4-2.28-2.1-4.86-2.1-7.73s.7-5.45,2.1-7.73c1.4-2.28,3.32-4.06,5.78-5.35s5.24-1.93,8.33-1.93,5.87,.65,8.33,1.93,4.38,3.07,5.78,5.35c1.4,2.29,2.1,4.86,2.1,7.73s-.7,5.45-2.1,7.73c-1.4,2.29-3.32,4.07-5.78,5.35s-5.24,1.93-8.33,1.93-5.86-.63-8.33-1.93Zm11.59-6.79c.97-.58,1.75-1.42,2.32-2.51s.87-2.34,.87-3.79-.28-2.72-.87-3.79c-.57-1.09-1.35-1.91-2.32-2.51-.97-.58-2.06-.88-3.26-.88s-2.29,.3-3.26,.88c-.97,.59-1.75,1.42-2.32,2.51s-.87,2.34-.87,3.79,.28,2.72,.87,3.79c.57,1.09,1.35,1.91,2.32,2.51,.97,.58,2.06,.88,3.26,.88s2.29-.28,3.26-.88Z"/><path class="cls-1" d="M94.15,14.5v28.72h-7.95l-10.92-13.04v13.05h-9.44V14.51h7.95l10.93,13.04V14.5h9.43Z"/><path class="cls-1" d="M102.59,43.07c-2.25-.53-4.11-1.25-5.56-2.15l3.12-7.05c1.37,.79,2.9,1.42,4.59,1.91,1.69,.48,3.32,.71,4.88,.71,1.35,0,2.3-.13,2.87-.39s.87-.65,.87-1.16c0-.59-.38-1.05-1.13-1.36-.75-.3-1.99-.63-3.71-.98-2.21-.47-4.06-.97-5.54-1.5-1.47-.53-2.77-1.41-3.85-2.63-1.1-1.22-1.64-2.86-1.64-4.94,0-1.81,.5-3.44,1.51-4.93,1.01-1.47,2.52-2.64,4.53-3.49,2-.85,4.45-1.27,7.32-1.27,1.97,0,3.91,.21,5.81,.63,1.9,.43,3.57,1.05,5.03,1.86l-2.91,7.01c-2.82-1.42-5.48-2.13-7.99-2.13s-3.74,.59-3.74,1.81c0,.57,.36,1.01,1.11,1.29s1.95,.59,3.65,.92c2.19,.41,4.04,.88,5.54,1.41s2.81,1.4,3.92,2.6,1.66,2.85,1.66,4.93c0,1.81-.5,3.44-1.51,4.9s-2.52,2.63-4.53,3.49-4.45,1.29-7.32,1.29c-2.38,0-4.71-.26-6.96-.8h0Z"/><path class="cls-1" d="M132.52,41.94c-2.46-1.28-4.38-3.07-5.78-5.35-1.4-2.28-2.1-4.86-2.1-7.73s.7-5.45,2.1-7.73c1.4-2.28,3.32-4.06,5.78-5.35,2.46-1.28,5.24-1.93,8.33-1.93s5.87,.65,8.33,1.93,4.38,3.07,5.78,5.35c1.4,2.29,2.1,4.86,2.1,7.73s-.7,5.45-2.1,7.73c-1.4,2.29-3.32,4.07-5.78,5.35s-5.24,1.93-8.33,1.93-5.87-.63-8.33-1.93Zm11.59-6.79c.97-.58,1.75-1.42,2.32-2.51s.87-2.34,.87-3.79-.28-2.72-.87-3.79c-.57-1.09-1.35-1.91-2.32-2.51-.97-.58-2.06-.88-3.26-.88s-2.29,.3-3.26,.88c-.97,.59-1.75,1.42-2.32,2.51s-.87,2.34-.87,3.79,.28,2.72,.87,3.79c.57,1.09,1.35,1.91,2.32,2.51,.97,.58,2.06,.88,3.26,.88s2.29-.28,3.26-.88Z"/><path class="cls-1" d="M160.57,14.5h9.69v21.21h12.96v7.5h-22.65V14.5h0Z"/><path class="cls-1" d="M214.73,14.5l-12.15,28.72h-9.52l-12.15-28.72h10.43l6.86,16.78,7.01-16.78h9.52Z"/></g><path class="cls-2" d="M206.65,9.36c-1.02-1-1.54-2.28-1.54-3.84s.52-2.82,1.54-3.79,2.32-1.46,3.88-1.46,2.85,.49,3.88,1.46c1.02,.97,1.54,2.24,1.54,3.79s-.52,2.83-1.54,3.84-2.32,1.5-3.88,1.5-2.85-.5-3.88-1.5Z"/><g><g class="cls-3"><path class="cls-1" d="M6.53,9.1c-.64,0-1.22-.1-1.76-.31-.54-.21-1-.5-1.4-.88-.4-.38-.7-.82-.92-1.33-.22-.51-.33-1.07-.33-1.67s.11-1.16,.33-1.67c.22-.51,.52-.95,.92-1.33,.4-.38,.86-.67,1.4-.88,.54-.21,1.12-.31,1.75-.31s1.22,.1,1.75,.31c.53,.21,1,.5,1.39,.88,.4,.38,.7,.82,.92,1.33,.22,.51,.33,1.07,.33,1.67s-.11,1.16-.33,1.68-.52,.95-.92,1.33c-.4,.37-.86,.66-1.39,.87-.53,.21-1.11,.31-1.74,.31Zm-.01-1.33c.41,0,.79-.07,1.14-.21,.35-.14,.65-.34,.91-.6,.26-.26,.46-.56,.6-.91,.14-.35,.22-.73,.22-1.15s-.07-.8-.22-1.15c-.14-.35-.34-.65-.6-.91-.26-.26-.56-.46-.91-.6-.35-.14-.73-.21-1.14-.21s-.79,.07-1.14,.21c-.35,.14-.65,.34-.91,.6-.26,.26-.46,.56-.61,.91-.14,.35-.22,.73-.22,1.15s.07,.79,.22,1.14c.14,.35,.34,.65,.6,.91,.26,.26,.56,.46,.91,.6,.35,.14,.73,.21,1.14,.21Z"/></g><g class="cls-3"><path class="cls-1" d="M13.18,8.99V2.77h1.39v1.71l-.16-.5c.19-.42,.48-.74,.88-.95,.4-.22,.9-.33,1.5-.33v1.39c-.06-.02-.12-.03-.17-.03-.05,0-.11,0-.16,0-.55,0-.99,.16-1.32,.48-.33,.32-.49,.8-.49,1.44v3.02h-1.46Z"/></g><g class="cls-3"><path class="cls-1" d="M19.56,1.75c-.27,0-.49-.09-.67-.26-.17-.17-.26-.38-.26-.62s.09-.46,.26-.62c.17-.17,.4-.25,.67-.25s.49,.08,.67,.24c.17,.16,.26,.36,.26,.6,0,.26-.09,.47-.26,.65-.17,.17-.4,.26-.68,.26Zm-.73,7.24V2.77h1.46v6.22h-1.46Z"/><path class="cls-1" d="M25.59,8.71c-.59,0-1.12-.13-1.6-.38-.48-.25-.85-.6-1.13-1.05-.28-.45-.41-.98-.41-1.58s.14-1.12,.41-1.57c.28-.45,.65-.8,1.13-1.05,.48-.25,1.01-.37,1.6-.37,.53,0,1,.1,1.42,.31,.42,.21,.75,.54,1.01,.98,.25,.44,.38,1.01,.38,1.7s-.13,1.26-.38,1.71c-.25,.45-.59,.78-1.01,.99-.42,.21-.89,.32-1.42,.32Zm.19,2.62c-.57,0-1.14-.08-1.68-.23s-1-.37-1.34-.66l.65-1.09c.27,.22,.62,.41,1.03,.54,.42,.14,.84,.2,1.26,.2,.68,0,1.18-.16,1.5-.47,.32-.31,.48-.79,.48-1.41v-1.11l.12-1.41-.05-1.41v-1.51h1.39v5.27c0,1.13-.29,1.95-.86,2.49-.57,.53-1.4,.8-2.49,.8Zm.03-3.85c.36,0,.69-.08,.98-.23,.29-.15,.51-.36,.67-.63,.16-.27,.24-.58,.24-.93s-.08-.66-.24-.93c-.16-.27-.38-.47-.67-.62-.29-.14-.61-.22-.98-.22s-.69,.07-.98,.22-.52,.35-.68,.62c-.16,.27-.24,.58-.24,.93s.08,.66,.24,.93c.16,.27,.38,.48,.68,.63s.62,.23,.98,.23Z"/><path class="cls-1" d="M32.54,1.75c-.27,0-.49-.09-.67-.26-.17-.17-.26-.38-.26-.62s.09-.46,.26-.62c.17-.17,.4-.25,.67-.25s.49,.08,.67,.24c.17,.16,.26,.36,.26,.6,0,.26-.09,.47-.26,.65-.17,.17-.4,.26-.68,.26Zm-.73,7.24V2.77h1.46v6.22h-1.46Z"/><path class="cls-1" d="M39.47,2.7c.5,0,.94,.1,1.33,.29,.39,.19,.7,.49,.93,.89,.23,.4,.34,.91,.34,1.54v3.56h-1.46v-3.38c0-.55-.13-.96-.39-1.23-.26-.27-.62-.41-1.09-.41-.34,0-.64,.07-.91,.21-.26,.14-.47,.35-.61,.62-.14,.28-.22,.62-.22,1.04v3.14h-1.46V2.77h1.39v1.68l-.24-.51c.22-.4,.53-.7,.95-.91,.42-.21,.89-.32,1.44-.32Z"/></g><g class="cls-3"><path class="cls-1" d="M52.81,9.1c-.62,0-1.2-.1-1.73-.31-.53-.21-.99-.5-1.39-.87-.39-.38-.7-.82-.91-1.33-.22-.51-.33-1.07-.33-1.68s.11-1.16,.33-1.68c.22-.51,.52-.96,.92-1.33s.86-.67,1.39-.87c.53-.21,1.11-.31,1.73-.31,.67,0,1.28,.11,1.83,.34,.55,.23,1.02,.57,1.4,1.02l-.98,.92c-.3-.32-.62-.56-.99-.72-.36-.16-.76-.24-1.19-.24s-.82,.07-1.17,.21c-.35,.14-.66,.34-.92,.59-.26,.26-.46,.56-.61,.91-.14,.35-.22,.73-.22,1.15s.07,.8,.22,1.15c.14,.35,.35,.65,.61,.91,.26,.26,.57,.45,.92,.59,.35,.14,.74,.21,1.17,.21s.82-.08,1.19-.24c.36-.16,.69-.4,.99-.73l.98,.93c-.38,.44-.85,.78-1.4,1.01-.55,.23-1.16,.35-1.84,.35Z"/></g><g class="cls-3"><path class="cls-1" d="M60.74,9.07c-.64,0-1.2-.14-1.7-.41-.5-.28-.89-.65-1.18-1.13-.29-.48-.43-1.03-.43-1.64s.14-1.17,.43-1.65c.29-.48,.68-.85,1.18-1.12,.5-.27,1.06-.41,1.7-.41s1.22,.14,1.72,.41c.5,.27,.89,.64,1.18,1.12,.28,.47,.42,1.02,.42,1.65s-.14,1.16-.42,1.64c-.28,.48-.68,.86-1.18,1.13-.5,.28-1.07,.41-1.72,.41Zm0-1.25c.36,0,.68-.08,.95-.23,.28-.16,.5-.38,.66-.68,.16-.29,.24-.64,.24-1.04s-.08-.75-.24-1.04c-.16-.29-.38-.51-.66-.67-.28-.16-.59-.23-.94-.23s-.67,.08-.95,.23c-.28,.16-.49,.38-.66,.67-.16,.29-.24,.64-.24,1.04s.08,.74,.24,1.04c.16,.29,.38,.52,.66,.68,.28,.16,.59,.23,.94,.23Z"/><path class="cls-1" d="M69.75,2.7c.5,0,.94,.1,1.33,.29,.39,.19,.7,.49,.93,.89,.23,.4,.34,.91,.34,1.54v3.56h-1.46v-3.38c0-.55-.13-.96-.39-1.23-.26-.27-.62-.41-1.09-.41-.34,0-.64,.07-.91,.21-.26,.14-.47,.35-.61,.62-.14,.28-.22,.62-.22,1.04v3.14h-1.46V2.77h1.39v1.68l-.24-.51c.22-.4,.53-.7,.95-.91,.42-.21,.89-.32,1.44-.32Z"/></g><g class="cls-3"><path class="cls-1" d="M74.23,3.98v-1.16h4.14v1.16h-4.14Zm3.17,5.09c-.68,0-1.21-.18-1.58-.53-.37-.35-.56-.87-.56-1.57V1.4h1.46V6.94c0,.3,.08,.52,.23,.69,.15,.16,.36,.24,.63,.24,.33,0,.6-.09,.81-.26l.41,1.04c-.17,.14-.38,.24-.63,.31-.25,.07-.5,.1-.77,.1Z"/></g><g class="cls-3"><path class="cls-1" d="M83.52,9.07c-.69,0-1.29-.14-1.81-.41-.52-.28-.92-.65-1.2-1.13-.28-.48-.42-1.03-.42-1.64s.14-1.17,.41-1.65c.28-.48,.66-.85,1.14-1.12,.48-.27,1.04-.41,1.66-.41s1.14,.13,1.62,.4c.47,.26,.85,.64,1.12,1.12,.27,.48,.41,1.05,.41,1.7,0,.06,0,.13,0,.21,0,.08,0,.15-.02,.22h-5.18v-.97h4.41l-.57,.3c0-.36-.07-.67-.22-.94-.16-.27-.37-.48-.63-.64-.27-.16-.58-.23-.93-.23s-.67,.08-.94,.23c-.27,.16-.48,.37-.63,.65-.15,.28-.23,.6-.23,.97v.23c0,.37,.09,.7,.26,.99,.17,.29,.41,.51,.72,.66,.31,.16,.67,.23,1.07,.23,.35,0,.66-.05,.94-.16,.28-.11,.53-.28,.75-.51l.78,.9c-.28,.33-.63,.58-1.05,.75-.42,.17-.91,.26-1.45,.26Z"/><path class="cls-1" d="M92.13,2.7c.5,0,.94,.1,1.33,.29,.39,.19,.7,.49,.93,.89,.23,.4,.34,.91,.34,1.54v3.56h-1.46v-3.38c0-.55-.13-.96-.39-1.23-.26-.27-.62-.41-1.09-.41-.34,0-.64,.07-.91,.21-.26,.14-.47,.35-.61,.62-.14,.28-.22,.62-.22,1.04v3.14h-1.46V2.77h1.39v1.68l-.24-.51c.22-.4,.53-.7,.95-.91,.42-.21,.89-.32,1.44-.32Z"/><path class="cls-1" d="M96.52,3.98v-1.16h4.14v1.16h-4.14Zm3.17,5.09c-.68,0-1.21-.18-1.58-.53-.37-.35-.56-.87-.56-1.57V1.4h1.46V6.94c0,.3,.08,.52,.23,.69,.15,.16,.36,.24,.63,.24,.33,0,.6-.09,.81-.26l.41,1.04c-.17,.14-.38,.24-.63,.31-.25,.07-.5,.1-.77,.1Z"/><path class="cls-1" d="M104.97,9.07c-.52,0-1.02-.07-1.5-.2-.48-.14-.86-.3-1.14-.49l.56-1.11c.28,.18,.61,.33,1,.44,.39,.12,.78,.17,1.16,.17,.46,0,.79-.06,1-.19,.21-.12,.31-.29,.31-.5,0-.17-.07-.3-.21-.39-.14-.09-.32-.16-.55-.2-.23-.05-.48-.09-.75-.13-.28-.04-.55-.09-.83-.16-.28-.07-.53-.16-.75-.29-.23-.13-.41-.3-.55-.52-.14-.22-.21-.5-.21-.86,0-.4,.11-.74,.34-1.03,.23-.29,.54-.52,.95-.68,.41-.16,.89-.24,1.45-.24,.42,0,.84,.05,1.27,.14,.43,.09,.78,.23,1.06,.4l-.56,1.11c-.3-.18-.59-.3-.89-.37-.3-.07-.6-.1-.89-.1-.44,0-.77,.07-.98,.2-.21,.13-.32,.3-.32,.5,0,.19,.07,.33,.21,.42,.14,.09,.32,.17,.55,.22,.22,.05,.48,.1,.75,.13,.28,.03,.55,.09,.82,.16,.27,.07,.52,.16,.75,.29,.23,.12,.41,.29,.55,.51,.14,.22,.21,.5,.21,.85,0,.39-.11,.73-.34,1.01-.23,.29-.55,.51-.97,.67-.42,.16-.92,.24-1.5,.24Z"/></g><g class="cls-3"><path class="cls-1" d="M114.17,8.99V.84h3.35c.72,0,1.34,.12,1.86,.35,.52,.23,.91,.57,1.19,1s.42,.95,.42,1.55-.14,1.11-.42,1.55c-.28,.43-.68,.77-1.19,1-.52,.23-1.14,.35-1.86,.35h-2.51l.68-.71v3.06h-1.51Zm1.51-2.9l-.68-.73h2.44c.67,0,1.17-.14,1.51-.42,.34-.28,.51-.68,.51-1.19s-.17-.92-.51-1.2c-.34-.28-.84-.42-1.51-.42h-2.44l.68-.75V6.09Z"/></g><g class="cls-3"><path class="cls-1" d="M123.12,8.99V2.77h1.39v1.71l-.16-.5c.19-.42,.48-.74,.88-.95,.4-.22,.9-.33,1.5-.33v1.39c-.06-.02-.12-.03-.17-.03-.05,0-.11,0-.16,0-.55,0-.99,.16-1.32,.48-.33,.32-.49,.8-.49,1.44v3.02h-1.46Z"/></g><g class="cls-3"><path class="cls-1" d="M131.51,9.07c-.64,0-1.2-.14-1.7-.41-.5-.28-.89-.65-1.18-1.13-.29-.48-.43-1.03-.43-1.64s.14-1.17,.43-1.65c.29-.48,.68-.85,1.18-1.12,.5-.27,1.06-.41,1.7-.41s1.22,.14,1.72,.41c.5,.27,.89,.64,1.18,1.12,.28,.47,.42,1.02,.42,1.65s-.14,1.16-.42,1.64c-.28,.48-.68,.86-1.18,1.13-.5,.28-1.07,.41-1.72,.41Zm0-1.25c.36,0,.68-.08,.95-.23,.28-.16,.5-.38,.66-.68,.16-.29,.24-.64,.24-1.04s-.08-.75-.24-1.04c-.16-.29-.38-.51-.66-.67-.28-.16-.59-.23-.94-.23s-.67,.08-.95,.23c-.28,.16-.49,.38-.66,.67-.16,.29-.24,.64-.24,1.04s.08,.74,.24,1.04c.16,.29,.38,.52,.66,.68,.28,.16,.59,.23,.94,.23Z"/><path class="cls-1" d="M139.78,9.07c-.64,0-1.2-.14-1.7-.41-.5-.28-.89-.65-1.18-1.13-.29-.48-.43-1.03-.43-1.64s.14-1.17,.43-1.65c.29-.48,.68-.85,1.18-1.12,.5-.27,1.06-.41,1.7-.41s1.22,.14,1.72,.41c.5,.27,.89,.64,1.18,1.12,.28,.47,.42,1.02,.42,1.65s-.14,1.16-.42,1.64c-.28,.48-.68,.86-1.18,1.13-.5,.28-1.07,.41-1.72,.41Zm0-1.25c.36,0,.68-.08,.95-.23,.28-.16,.5-.38,.66-.68,.16-.29,.24-.64,.24-1.04s-.08-.75-.24-1.04c-.16-.29-.38-.51-.66-.67-.28-.16-.59-.23-.94-.23s-.67,.08-.95,.23c-.28,.16-.49,.38-.66,.67s-.24,.64-.24,1.04,.08,.74,.24,1.04,.38,.52,.66,.68c.28,.16,.59,.23,.94,.23Z"/><path class="cls-1" d="M144.44,3.98v-1.16h4.14v1.16h-4.14Zm1.02,5.01V2.42c0-.65,.19-1.17,.58-1.57,.38-.39,.93-.59,1.65-.59,.26,0,.5,.03,.73,.08,.23,.05,.42,.14,.58,.26l-.4,1.09c-.11-.09-.23-.15-.37-.19-.14-.04-.28-.06-.43-.06-.3,0-.53,.08-.69,.25-.16,.17-.23,.42-.23,.75v.7l.05,.65v5.19h-1.46Z"/></g><g class="cls-3"><path class="cls-1" d="M157.16,9.1c-.64,0-1.25-.09-1.83-.27s-1.04-.42-1.39-.7l.52-1.18c.33,.26,.73,.47,1.21,.64,.48,.17,.97,.26,1.48,.26,.43,0,.77-.05,1.04-.14,.26-.09,.46-.22,.58-.38,.12-.16,.19-.34,.19-.54,0-.25-.09-.45-.27-.6-.18-.15-.41-.27-.69-.36-.28-.09-.6-.17-.94-.25-.35-.08-.69-.17-1.04-.27-.35-.1-.66-.24-.94-.41-.28-.17-.51-.39-.69-.67-.18-.28-.27-.64-.27-1.07s.12-.85,.36-1.22c.24-.37,.6-.66,1.08-.88,.48-.22,1.1-.33,1.85-.33,.49,0,.97,.06,1.46,.19,.48,.12,.9,.3,1.26,.54l-.48,1.18c-.36-.22-.74-.38-1.13-.48-.39-.1-.76-.16-1.12-.16-.42,0-.76,.05-1.02,.15-.26,.1-.45,.23-.57,.4-.12,.16-.18,.35-.18,.56,0,.25,.09,.45,.26,.6,.17,.15,.4,.27,.69,.36,.28,.09,.6,.17,.95,.25,.35,.08,.7,.17,1.04,.27,.35,.1,.66,.23,.94,.4,.28,.16,.51,.38,.69,.66,.17,.28,.26,.63,.26,1.06s-.12,.84-.36,1.2c-.24,.37-.6,.66-1.09,.88-.49,.22-1.11,.33-1.85,.33Z"/></g><g class="cls-3"><path class="cls-1" d="M163.03,11.33c-.3,0-.61-.05-.91-.15-.3-.1-.56-.24-.76-.42l.58-1.07c.15,.13,.31,.24,.5,.31,.19,.08,.38,.12,.57,.12,.26,0,.48-.07,.64-.2,.16-.13,.31-.35,.45-.66l.36-.81,.12-.17,2.35-5.49h1.4l-2.91,6.72c-.19,.47-.41,.83-.65,1.11-.24,.27-.5,.46-.79,.57-.29,.11-.61,.16-.96,.16Zm1.28-2.12l-2.81-6.44h1.51l2.28,5.37-.99,1.07Z"/></g><g class="cls-3"><path class="cls-1" d="M171.9,9.07c-.52,0-1.02-.07-1.5-.2-.48-.14-.86-.3-1.13-.49l.56-1.11c.28,.18,.61,.33,1,.44,.39,.12,.78,.17,1.16,.17,.46,0,.79-.06,1-.19,.21-.12,.31-.29,.31-.5,0-.17-.07-.3-.21-.39-.14-.09-.32-.16-.55-.2-.23-.05-.48-.09-.75-.13-.28-.04-.55-.09-.83-.16-.28-.07-.53-.16-.75-.29-.23-.13-.41-.3-.55-.52-.14-.22-.21-.5-.21-.86,0-.4,.11-.74,.34-1.03s.54-.52,.95-.68c.41-.16,.89-.24,1.45-.24,.42,0,.84,.05,1.27,.14,.43,.09,.78,.23,1.06,.4l-.56,1.11c-.3-.18-.59-.3-.89-.37-.3-.07-.6-.1-.89-.1-.44,0-.77,.07-.98,.2-.21,.13-.32,.3-.32,.5,0,.19,.07,.33,.21,.42s.32,.17,.55,.22c.22,.05,.48,.1,.75,.13,.28,.03,.55,.09,.82,.16,.27,.07,.52,.16,.75,.29,.23,.12,.41,.29,.55,.51,.14,.22,.21,.5,.21,.85,0,.39-.11,.73-.34,1.01-.23,.29-.55,.51-.97,.67-.42,.16-.92,.24-1.5,.24Z"/></g><g class="cls-3"><path class="cls-1" d="M175.96,3.98v-1.16h4.14v1.16h-4.14Zm3.17,5.09c-.68,0-1.21-.18-1.58-.53-.37-.35-.56-.87-.56-1.57V1.4h1.46V6.94c0,.3,.08,.52,.23,.69,.15,.16,.36,.24,.63,.24,.33,0,.6-.09,.81-.26l.41,1.04c-.17,.14-.38,.24-.63,.31-.25,.07-.5,.1-.77,.1Z"/></g><g class="cls-3"><path class="cls-1" d="M185.25,9.07c-.69,0-1.29-.14-1.81-.41-.52-.28-.92-.65-1.2-1.13-.28-.48-.42-1.03-.42-1.64s.14-1.17,.41-1.65c.28-.48,.66-.85,1.14-1.12,.48-.27,1.04-.41,1.66-.41s1.14,.13,1.62,.4c.47,.26,.85,.64,1.12,1.12,.27,.48,.41,1.05,.41,1.7,0,.06,0,.13,0,.21,0,.08,0,.15-.02,.22h-5.18v-.97h4.41l-.57,.3c0-.36-.07-.67-.22-.94-.16-.27-.37-.48-.63-.64-.27-.16-.58-.23-.93-.23s-.67,.08-.94,.23c-.27,.16-.48,.37-.63,.65-.15,.28-.23,.6-.23,.97v.23c0,.37,.09,.7,.26,.99,.17,.29,.41,.51,.72,.66,.31,.16,.67,.23,1.07,.23,.35,0,.66-.05,.94-.16,.28-.11,.53-.28,.75-.51l.78,.9c-.28,.33-.63,.58-1.05,.75-.42,.17-.91,.26-1.45,.26Z"/><path class="cls-1" d="M198.19,2.7c.5,0,.94,.1,1.32,.29,.38,.19,.68,.49,.9,.89,.22,.4,.33,.91,.33,1.54v3.56h-1.46v-3.38c0-.55-.12-.96-.36-1.23-.24-.27-.59-.41-1.04-.41-.32,0-.6,.07-.84,.21-.24,.14-.43,.35-.57,.62-.14,.27-.2,.62-.2,1.04v3.15h-1.46v-3.38c0-.55-.12-.96-.36-1.23-.24-.27-.59-.41-1.04-.41-.32,0-.6,.07-.84,.21s-.43,.35-.57,.62c-.14,.27-.2,.62-.2,1.04v3.15h-1.46V2.77h1.39v1.65l-.24-.49c.21-.4,.51-.71,.91-.92,.4-.21,.86-.31,1.37-.31,.58,0,1.09,.14,1.52,.43s.72,.72,.86,1.3l-.57-.2c.2-.47,.54-.84,1-1.12,.47-.28,1-.42,1.62-.42Z"/></g></g></svg>